<svg width="18" height="17" viewBox="0 0 18 17" fill="none" xmlns="http://www.w3.org/2000/svg">
<path d="M17.0003 2.68408L15.316 6.0525L13.6318 2.68408" stroke="#AEAEAE" stroke-width="1.3" stroke-linecap="round" stroke-linejoin="round"/>
<path d="M11.9479 2.68408H10.2637V6.0525H11.9479" stroke="#AEAEAE" stroke-width="1.3" stroke-linecap="round" stroke-linejoin="round"/>
<path d="M10.2637 4.36841H11.5268" stroke="#AEAEAE" stroke-width="1.3" stroke-linecap="round" stroke-linejoin="round"/>
<path d="M3.52637 6.05249V14.4735C3.52637 15.4037 4.28041 16.1578 5.21058 16.1578H12.7895C13.7197 16.1578 14.4737 15.4037 14.4737 14.4735V10.263" stroke="#AEAEAE" stroke-width="1.3" stroke-linecap="round"/>
<path d="M6.05263 3.18935V4.36829C6.05263 5.29846 5.29859 6.0525 4.36842 6.0525H2.68421C1.75405 6.0525 1 5.29846 1 4.36829V3.18935C1 2.9103 1.22621 2.68408 1.50526 2.68408H5.54737C5.82642 2.68408 6.05263 2.9103 6.05263 3.18935Z" stroke="#AEAEAE" stroke-width="1.3" stroke-linecap="round"/>
<path d="M1.8418 2.68421V1" stroke="#AEAEAE" stroke-width="1.3" stroke-linecap="round"/>
<path d="M5.21094 2.68421V1" stroke="#AEAEAE" stroke-width="1.3" stroke-linecap="round"/>
</svg>
