<svg width="24" height="24" viewBox="0 0 24 24" fill="none" xmlns="http://www.w3.org/2000/svg">
<path d="M5.3998 19.2C5.7358 19.2 5.9998 18.936 5.9998 18.6V5.40005C5.9998 5.06405 5.7358 4.80005 5.3998 4.80005C5.0638 4.80005 4.7998 5.06405 4.7998 5.40005V18.6C4.7998 18.936 5.0638 19.2 5.3998 19.2Z" fill="#AEAEAE"/>
<path d="M18.6 4.80005C18.264 4.80005 18 5.06405 18 5.40005V12.6C18 12.936 18.264 13.2 18.6 13.2C18.936 13.2 19.2 12.936 19.2 12.6V5.40005C19.2 5.06405 18.936 4.80005 18.6 4.80005Z" fill="#AEAEAE"/>
<path d="M12.0004 7.20005C12.3364 7.20005 12.6004 6.93605 12.6004 6.60005V5.40005C12.6004 5.06405 12.3364 4.80005 12.0004 4.80005C11.6644 4.80005 11.4004 5.06405 11.4004 5.40005V6.60005C11.4004 6.93605 11.6644 7.20005 12.0004 7.20005Z" fill="#AEAEAE"/>
<path d="M12.0004 19.2C12.3364 19.2 12.6004 18.936 12.6004 18.6V17.4C12.6004 17.064 12.3364 16.8 12.0004 16.8C11.6644 16.8 11.4004 17.064 11.4004 17.4V18.6C11.4004 18.936 11.6644 19.2 12.0004 19.2Z" fill="#AEAEAE"/>
<path d="M20.9996 18.0001H19.1996V16.2001C19.1996 15.8641 18.9356 15.6001 18.5996 15.6001C18.2636 15.6001 17.9996 15.8641 17.9996 16.2001V18.0001H16.1996C15.8636 18.0001 15.5996 18.2641 15.5996 18.6001C15.5996 18.9361 15.8636 19.2001 16.1996 19.2001H17.9996V21.0001C17.9996 21.3361 18.2636 21.6001 18.5996 21.6001C18.9356 21.6001 19.1996 21.3361 19.1996 21.0001V19.2001H20.9996C21.3356 19.2001 21.5996 18.9361 21.5996 18.6001C21.5996 18.2641 21.3356 18.0001 20.9996 18.0001Z" fill="#AEAEAE"/>
<path d="M12.0004 13.2C12.3364 13.2 12.6004 12.936 12.6004 12.6V11.4C12.6004 11.064 12.3364 10.8 12.0004 10.8C11.6644 10.8 11.4004 11.064 11.4004 11.4V12.6C11.4004 12.936 11.6644 13.2 12.0004 13.2Z" fill="#AEAEAE"/>
</svg>
