<?xml version="1.0" encoding="UTF-8"?>
<svg width="560px" height="289px" viewBox="0 0 560 289" version="1.1" xmlns="http://www.w3.org/2000/svg" xmlns:xlink="http://www.w3.org/1999/xlink">
    <!-- Generator: Sketch 61 (89581) - https://sketch.com -->
    <title>Image</title>
    <desc>Created with Sketch.</desc>
    <defs>
        <polygon id="path-1" points="0.0297528271 0.410222222 112.471807 0.410222222 112.471807 31.924221 0.0297528271 31.924221"></polygon>
        <polygon id="path-3" points="0.414133663 0.184702716 237.756378 0.184702716 237.756378 231.173259 0.414133663 231.173259"></polygon>
        <polygon id="path-5" points="0.414133663 0.184702716 237.756378 0.184702716 237.756378 231.173259 0.414133663 231.173259"></polygon>
        <polygon id="path-7" points="0 0.223168483 162.385779 0.223168483 162.385779 215.256404 0 215.256404"></polygon>
    </defs>
    <g id="Page-1" stroke="none" stroke-width="1" fill="none" fill-rule="evenodd">
        <g id="07---Info-Community" transform="translate(-396.000000, -647.000000)">
            <g id="Middle-content" transform="translate(313.000000, 505.000000)">
                <g id="Bhs-Ver" transform="translate(19.000000, 142.000000)">
                    <g id="Image" transform="translate(64.000000, 0.000000)">
                        <g id="Group-40" transform="translate(0.000000, 25.000000)">
                            <g id="Group" transform="translate(138.565871, 190.755051)" fill="#D8F0FA">
                                <path d="M84.9358542,39.9097794 C79.0523499,43.0834266 73.8197067,47.7494574 67.3087534,49.2791507 C62.434318,50.4194251 57.285959,49.6755651 52.3670403,50.6036412 C47.4457803,51.5270536 42.2997626,55.1017789 42.3600997,60.0872731 C42.3770231,61.5236924 42.8382449,62.9251339 43.4891061,64.2053193 C48.049817,73.1386347 60.5613361,74.5937087 70.2165578,71.769839 C79.8694382,68.9436374 88.5928514,63.1140137 98.5290204,61.5400153 C119.180987,58.2730942 139.060349,74.0154101 159.850448,71.7628435 C167.684194,70.9163821 174.995848,67.5515233 182.632931,65.6230838 C202.254758,60.6748991 223.897064,65.2336649 242.500456,57.2913855 C246.18789,55.7173871 250.104763,53.0287647 250.348251,49.0389702 C250.498089,46.6208423 249.205732,44.3402935 247.667545,42.4701502 C238.19728,30.9554774 220.689582,30.9811278 205.925802,33.2686721 C195.135085,34.94294 184.454406,37.2887806 173.958684,40.2898709 C167.693559,42.085395 161.297326,44.1350907 154.798079,43.5917698 C148.254349,43.0484489 142.504294,39.9330979 136.248535,38.3077989 C130.587447,36.8387337 126.228081,37.8554201 120.719173,37.5849255 C107.563817,36.9366714 97.6346715,33.0518101 84.9358542,39.9097794" id="Fill-34"></path>
                                <path d="M15.3785318,39.1938116 C16.9248901,41.9051824 20.3635026,42.8138501 23.4620325,43.039188 C30.0747488,43.5235182 36.822626,42.0149249 42.6112961,38.7563049 C43.433889,38.2953865 44.3393224,37.626689 44.329234,36.6770508 C44.3189756,35.5664569 43.0908997,34.9255609 42.0372252,34.593407 C37.0304543,33.0218947 31.3958387,32.6546232 26.2524534,33.7827759 C24.9749638,34.0622534 14.5268721,37.7042404 15.3785318,39.1938116" id="Fill-36"></path>
                                <path d="M6.72509813,1.18932033 C5.30871253,-0.795764424 1.63807943,-0.144656626 0.557503563,2.02464399 C-0.526397154,4.19076847 0.640624783,6.9317735 2.66545772,8.35150611 C4.69694035,9.76806259 7.34684486,10.104733 9.85710573,10.0158012 C13.4745412,9.89193188 17.0587283,8.98673323 20.2638825,7.38278475 C20.978725,7.02705757 21.7135166,6.59510312 22.0559761,5.89952943 C23.0733798,3.82551288 20.0211686,2.12945647 17.6505514,1.78643382 C13.4811909,1.18932033 9.24200869,1.07180331 5.04604948,1.44023504" id="Fill-38"></path>
                            </g>
                            <path d="M559.005779,207.766884 C559.005779,207.766884 561.248563,210.751643 545.47345,214.032411 C526.9591,217.881939 481.961969,214.981049 477.561827,222.088793 C472.75696,229.849166 508.223483,227.660813 507.816659,236.721512 C507.470753,244.424797 483.350493,244.142884 456.161896,244.142884 L151.384795,244.142884 C129.365175,244.142884 133.350091,237.42841 136.467443,234.371763 C140.993624,229.933035 139.004317,225.836833 119.190371,225.271596 C99.9576018,224.72257 85.8721036,224.250364 75.3759007,224.250364 C47.3820585,224.250364 52.8759349,214.959906 31.0656796,214.959906 C16.9661772,214.959906 0,211.388062 0,207.249572 C89.1435019,200.728914 184.92573,196.897005 286.603056,197.181738 C382.972763,197.45167 473.985835,201.389296 559.005779,207.766884" id="Fill-7" fill="#E1EAF0" opacity="0.393298921"></path>
                            <path d="M402.550116,116.942871 C334.684124,93.2777287 293.998835,140.291244 293.998835,140.291244 C293.998835,140.291244 276.398402,94.9705155 224.169777,109.772559 C177.974653,122.866251 183.430034,161.758235 183.430034,161.758235 C183.430034,161.758235 174.37706,147.718816 155.563211,152.275333 C136.749362,156.832766 135.407071,173.396259 135.407071,173.396259 C135.407071,173.396259 113.711699,162.595016 88.2626329,174.185433 C62.812659,185.776766 64.0088314,206.801563 64.0088314,206.801563 L468.802456,206.801563 C468.802456,206.801563 476.062986,142.577285 402.550116,116.942871" id="Fill-3" fill="#D8F0FA"></path>
                            <path d="M356.844206,152.64715 C397.564256,138.448064 421.974831,166.656174 421.974831,166.656174 C421.974831,166.656174 432.535068,139.463737 463.872174,148.344962 C491.589188,156.201178 488.315966,179.536368 488.315966,179.536368 C488.315966,179.536368 493.748283,171.112717 505.036023,173.846627 C516.324308,176.581087 517.129681,186.519183 517.129681,186.519183 C517.129681,186.519183 530.146875,180.038437 545.416826,186.992687 C560.686232,193.947487 559.969075,206.562365 559.969075,206.562365 L317.092889,206.562365 C317.092889,206.562365 312.736581,168.027798 356.844206,152.64715" id="Fill-5" fill="#D8F0FA"></path>
                            <g id="mascot" transform="translate(157.000000, 0.000000)">
                                <g id="Group-3" transform="translate(41.527778, 0.000000)">
                                    <mask id="mask-2" fill="white">
                                        <use xlink:href="#path-1"></use>
                                    </mask>
                                    <g id="Clip-2"></g>
                                    <path d="M112.120763,15.1115792 C35.5360492,-17.8880181 0.0297528271,14.9730931 0.0297528271,14.9730931 C0.0297528271,14.9730931 30.8989269,10.8936208 16.933117,26.6247042 C2.96967417,42.3581347 119.664668,18.3624819 112.120763,15.1115792" id="Fill-1" fill="#009AC9" mask="url(#mask-2)"></path>
                                </g>
                                <path d="M104.722222,241.037852 C104.722222,241.037852 82.8109985,242.161607 19.8611111,205.833333 L38.6784645,208.528891 L104.722222,241.037852 Z" id="Fill-4" fill="#009AC9"></path>
                                <g id="Group-8" transform="translate(0.000000, 9.930556)">
                                    <mask id="mask-4" fill="white">
                                        <use xlink:href="#path-3"></use>
                                    </mask>
                                    <g id="Clip-7"></g>
                                    <path d="M0.414133663,115.679335 C0.414133663,179.464283 53.5459488,231.173967 119.085256,231.173967 C184.624563,231.173967 237.756378,179.464283 237.756378,115.679335 C237.756378,51.8943865 184.624563,0.184702716 119.085256,0.184702716 C53.5459488,0.184702716 0.414133663,51.8943865 0.414133663,115.679335" id="Fill-6" fill="#00B9FF" mask="url(#mask-4)"></path>
                                </g>
                                <g id="Group-11" transform="translate(0.000000, 9.930556)">
                                    <mask id="mask-6" fill="white">
                                        <use xlink:href="#path-5"></use>
                                    </mask>
                                    <g id="Clip-10"></g>
                                    <path d="M0.414133663,115.679335 C0.414133663,179.464283 53.5459488,231.173967 119.085256,231.173967 C184.624563,231.173967 237.756378,179.464283 237.756378,115.679335 C237.756378,51.8943865 184.624563,0.184702716 119.085256,0.184702716 C53.5459488,0.184702716 0.414133663,51.8943865 0.414133663,115.679335" id="Fill-9" fill="#40D2FF" mask="url(#mask-6)"></path>
                                </g>
                                <path d="M214.861111,75.340487 C209.983196,63.5212882 202.899223,52.5311763 194.136472,43.0013879 C189.757461,38.2270723 184.915013,33.8696555 179.75336,29.9032284 C174.603529,25.9250246 169.04228,22.4626448 163.23276,19.471337 C151.642095,13.4015731 138.855005,9.63535173 125.829102,7.98188869 C112.779555,6.47210263 99.4509992,7.2069751 86.6426284,10.238324 C60.9927843,16.2751129 37.8327342,31.7992936 22.3903363,52.816175 C6.68548145,73.6752472 -1.15748805,99.9728467 0.138245232,125.486111 C1.43161403,99.9940449 10.4426351,75.2344958 26.1900505,55.7226898 L27.6560261,53.8925747 C28.1525662,53.2872471 28.6869379,52.7148945 29.2000294,52.123699 C30.2451281,50.9601509 31.231115,49.7494957 32.347148,48.6518977 C33.4442652,47.5401675 34.4822705,46.3719088 35.610126,45.2931537 L39.0031502,42.0663098 C43.6446181,37.8902558 48.6242062,34.1004808 53.8780736,30.7511582 C59.1272121,27.3994803 64.6175272,24.42466 70.339561,21.9656637 C76.0757817,19.5396424 82.0129829,17.6106022 88.0707724,16.1832538 C100.155613,13.2037228 112.781919,12.4829825 125.1836,13.7219021 C131.385623,14.3554941 137.540356,15.5237529 143.555585,17.1984141 C149.570814,18.8777862 155.441809,21.0824035 161.116554,23.7321841 C163.963384,25.0417645 166.717999,26.535063 169.44897,28.0754687 C172.144473,29.6794692 174.813968,31.3305769 177.391247,33.1253616 C182.569452,36.6866666 187.466283,40.6813579 191.987163,45.0835266 C196.541145,49.4527202 200.757007,54.1964162 204.566179,59.272218 C208.38008,64.3409537 211.806207,69.7253077 214.861111,75.340487" id="Fill-12" fill="#009AC9"></path>
                                <g id="Group-16" transform="translate(0.000000, 16.250000)">
                                    <mask id="mask-8" fill="white">
                                        <use xlink:href="#path-7"></use>
                                    </mask>
                                    <g id="Clip-15"></g>
                                    <path d="M0.413315217,116.118322 C-1.30353261,95.5275629 2.31621377,74.1666817 11.3408514,54.9960563 C13.5616848,50.1869141 16.1993659,45.5638259 19.1314312,41.1220815 C19.8850543,40.0245985 20.5774457,38.8847235 21.3828804,37.8225672 L23.7685688,34.6101921 C25.4524457,32.5400472 27.1151268,30.443996 28.9450181,28.4868965 L30.2944746,26.9961096 C30.7537138,26.5109561 31.2388587,26.0493538 31.7122283,25.5736209 C32.6754529,24.6409959 33.5845109,23.6518481 34.5995471,22.7686805 L37.5975543,20.0767855 L40.7345109,17.5356178 C45.0042572,14.2502342 49.5613225,11.3157626 54.3656703,8.81934206 C64.0026268,3.87124819 74.7134964,0.91322539 85.5538949,0.305606057 C88.2669384,0.227887305 90.9776268,0.147813439 93.6836051,0.355063444 C96.3942935,0.404520832 99.0743659,0.863768002 101.752083,1.20290437 C107.072192,2.15908053 112.314583,3.53211182 117.302627,5.53866868 C127.271649,9.54236196 136.329257,15.5031547 143.881975,22.8463992 C145.827264,24.6221549 147.537047,26.6357772 149.329257,28.538709 C150.181793,29.532567 150.999004,30.5570415 151.835054,31.562675 L153.071467,33.0793682 L154.218388,34.6714251 C157.374185,38.8258456 159.97654,43.3523742 162.385779,47.9095192 C161.580344,46.8944652 160.781975,45.8817663 159.997736,44.8643571 L158.815489,43.3429537 L157.555525,41.8827832 L155.070924,38.9483115 L152.440308,36.1598569 L151.126178,34.772695 L149.750815,33.446766 C148.832337,32.5659534 147.937409,31.6710102 147.011866,30.8043284 C145.073641,29.1651693 143.23433,27.4294505 141.185417,25.9457288 C133.277083,19.6976122 124.410236,14.8295922 115.051178,11.7326177 L111.518569,10.6586859 C110.341033,10.3007086 109.12346,10.0911035 107.934149,9.79671424 L106.144293,9.38456935 C105.541395,9.26445855 104.933786,9.1867398 104.328533,9.08311479 C103.118025,8.89941593 101.914583,8.67568013 100.701721,8.52024262 C98.2618659,8.3271233 95.8384964,8.03037897 93.389221,8.05864034 C90.951721,7.94323977 88.514221,8.1033875 86.0837862,8.24469432 C81.2276268,8.6544841 76.4256341,9.54942731 71.7578804,10.9130381 C67.0901268,12.2719387 62.5189312,14.0194331 58.1997283,16.3015383 C52.9408514,19.0122741 47.9645833,22.2976577 43.339221,26.051709 C54.5776268,18.8733224 67.3915761,14.8013308 80.9991848,14.8013308 C125.502989,14.8013308 161.582699,58.3026359 161.582699,111.963901 C161.582699,160.029417 132.636504,199.934463 94.6162138,207.736955 C104.634692,207.459051 114.63433,205.35358 123.981612,201.479418 C131.55788,198.238781 138.787953,193.976026 145.214946,188.589881 C151.764402,183.319136 157.369475,176.894386 162.385779,169.904409 C158.84375,177.744582 153.876902,185.050145 147.765489,191.345364 C141.705888,197.706526 134.402808,202.908972 126.485054,206.943282 L123.454076,208.337509 C122.947736,208.56831 122.44375,208.808532 121.935054,209.029912 L120.378351,209.637532 C119.339764,210.037901 118.301178,210.442981 117.250815,210.824509 L114.062047,211.830142 C113.527446,211.992645 112.997554,212.171634 112.460598,212.324716 L110.837953,212.727441 L107.578533,213.518759 L104.281431,214.112248 L102.62817,214.406637 L100.965489,214.613887 C96.5308877,215.219151 92.0350543,215.355748 87.5557065,215.193245 C85.3136775,215.141432 83.0834239,214.880015 80.8508152,214.653924 L77.5230978,214.15935 C76.4115036,214.006268 75.3211051,213.74014 74.2189312,213.528179 C69.8384964,212.567293 65.5075181,211.344989 61.34375,209.677569 C57.184692,208.005438 53.1457428,206.050693 49.3022645,203.763878 C45.4705616,201.453512 41.8296196,198.846401 38.4288949,195.968452 C37.5904891,195.233656 36.7285326,194.529477 35.9136775,193.771131 L33.4973732,191.465474 C31.9548007,189.861642 30.4004529,188.274295 28.9850543,186.562128 C28.1866848,185.631858 27.4165761,184.678037 26.6629529,183.71244 C11.2160326,166.699099 1.28469203,142.526212 0.474547101,115.548384 C0.455706522,115.739149 0.43451087,115.927558 0.413315217,116.118322" id="Fill-14" fill="#009AC9" mask="url(#mask-8)"></path>
                                </g>
                                <path d="M11.7361111,125.93868 C11.7361111,165.078238 38.0072976,196.805556 70.4178437,196.805556 C102.826036,196.805556 129.097222,165.078238 129.097222,125.93868 C129.097222,86.799121 102.826036,55.0694444 70.4178437,55.0694444 C38.0072976,55.0694444 11.7361111,86.799121 11.7361111,125.93868" id="Fill-17" fill="#0B3551"></path>
                                <path d="M31.5972222,125.487278 C31.5972222,151.91206 49.3815146,173.333333 71.3194444,173.333333 C93.2573743,173.333333 111.041667,151.91206 111.041667,125.487278 C111.041667,99.0624958 93.2573743,77.6388889 71.3194444,77.6388889 C49.3815146,77.6388889 31.5972222,99.0624958 31.5972222,125.487278" id="Fill-19" fill="#008BC1"></path>
                                <path d="M34.0434969,143.484408 C34.3188023,142.12786 35.1826916,141.568166 36.2483133,141.060646 C40.6318396,138.966535 45.2289648,137.119069 49.7762503,135.726947 C51.6606682,135.14828 54.2404695,134.403601 55.6858227,134.515066 C57.2878153,134.64076 59.3573523,135.589395 60.0978289,137.545954 C60.5582534,138.767322 60.4016141,140.745225 60.0978289,142.151576 C59.6160444,144.350037 58.6714622,146.766685 58.0923715,148.331932 C56.6493916,152.230821 55.0568923,155.987415 53.3813268,160.090261 C52.5530373,162.117968 51.6393083,164.78126 50.3767008,165.179686 C48.1030581,165.898277 45.9338415,163.557521 44.464755,162.15117 C40.9925846,158.830948 38.749795,155.572387 36.3479929,150.999968 C35.5125834,149.413376 33.521366,146.048094 34.0434969,143.484408 M59.8960965,165.665862 C60.2592148,164.347259 60.6413197,163.147236 60.8976385,162.272121 C62.0273399,158.411177 63.9805841,152.560472 65.3072712,149.18096 C66.425106,146.335056 68.0674451,141.97845 71.8196676,142.637752 C74.1858699,143.050408 75.2799714,145.637809 76.2293004,147.727177 C78.6453424,153.044276 80.8857587,158.702882 83.0431086,164.574932 C83.6340658,166.180496 84.2511296,167.162333 84.1443301,168.331526 C83.9046246,170.978217 81.0637578,171.803529 78.9348877,172.453344 C76.4144195,173.219366 73.6732323,173.603564 71.4185761,173.665225 C69.7382639,173.707913 67.3269685,173.667596 64.6071412,173.179049 C62.3809649,172.782994 59.4617785,172.062032 59.1959664,169.422456 C59.0962869,168.438247 59.5234849,167.015295 59.8960965,165.665862 M93.0632752,164.088756 C91.4968825,163.834997 90.4431275,161.04601 89.3561459,158.876008 C87.1821826,154.531261 85.4164309,150.549366 83.7432387,146.150072 C82.9671623,144.110507 81.6214886,141.684374 81.7401547,138.757835 C81.9110339,134.553011 84.5691548,133.203578 87.4527414,133.547459 C91.3995763,134.01229 94.3899624,135.171996 98.0733586,136.331702 C99.5851649,136.810762 101.33905,137.410774 103.185495,138.029758 C104.877674,138.596567 107.127583,138.909617 107.792113,140.332569 C108.269151,141.352351 108.091152,143.664649 107.692434,145.059142 C107.101476,147.136652 106.080948,149.109813 105.088899,150.999968 C103.104802,154.777906 100.933212,157.934488 98.0733586,160.936917 C96.7846446,162.295837 94.9310799,164.392319 93.0632752,164.088756 M109.396479,128.332339 C108.129125,129.031957 105.64663,128.372656 103.885625,128.092808 C100.361241,127.528371 96.2269138,126.672228 92.5625042,125.666675 C90.5736602,125.12121 88.6560158,124.668237 87.251009,123.605766 C86.0857078,122.723535 84.7139275,120.688714 84.7447807,118.637291 C84.7922471,115.988228 86.9092506,113.83957 88.2549243,112.456935 C90.2864882,110.360452 92.2349858,108.496385 94.3662292,106.51611 C96.3574466,104.666272 98.3866371,102.733428 100.579587,100.819557 C101.640462,99.892267 102.594537,99.0337525 103.885625,99.3657746 C105.762923,99.8495784 106.980437,102.783232 107.792113,104.818053 C109.576852,109.290866 110.644847,114.788205 111.000845,120.577249 C111.221564,124.170203 111.074418,127.409791 109.396479,128.332339 M96.6730984,89.5474043 C96.6517385,90.8849794 95.9065153,91.5917124 95.1684121,92.5782926 C91.8956007,96.9372695 88.2288178,101.087547 84.6451011,104.699474 C83.2472143,106.108197 81.4672226,107.958034 79.6373911,108.577019 C78.5717694,108.9375 77.1928692,108.951729 76.3289799,108.577019 C72.8734227,107.073432 73.222301,100.032191 73.2246744,93.7901735 L73.2246744,85.546537 C73.2246744,82.6626872 73.0276886,79.3306074 73.9248044,78.0309777 C74.8337869,76.7194901 76.8463641,76.7764082 78.1327048,76.9424193 C80.233095,77.2151518 82.2646589,77.8602234 84.0446506,78.638104 C87.5619142,80.1796356 90.6068867,82.2263152 93.4643667,84.6998804 C94.6628945,85.736264 96.7039516,87.1971616 96.6730984,89.5474043 M74.5276283,113.908346 C74.5276283,112.191317 75.7237827,111.318573 77.02911,111.726486 C77.9903055,112.030049 78.4008902,112.843504 78.4341167,113.789767 C78.5504095,117.306831 74.5276283,116.654644 74.5276283,113.908346 M80.9403451,129.907072 C77.949959,130.246209 78.0615051,124.499854 81.1397041,125.303822 C82.1436195,125.564697 82.5731908,126.354435 82.6443905,127.241409 C82.7939098,129.226427 81.7211681,129.821695 80.9403451,129.907072 M71.6203085,134.273164 C72.5767574,134.574356 72.9897154,135.38781 73.022942,136.331702 C73.1416081,139.851137 69.1140802,139.19895 69.1140802,136.455024 C69.1140802,134.735624 70.3102346,133.860508 71.6203085,134.273164 M73.022942,119.728221 C74.1763766,120.610451 75.239625,122.111666 75.2277584,124.696696 C75.1874119,132.084189 65.6656429,132.190911 65.7083627,124.575745 C65.7273493,121.139315 68.1338981,118.66575 70.9178051,119.000144 C71.867134,119.116351 72.4699579,119.306078 73.022942,119.728221 M60.3968675,130.758472 C58.2395175,130.160832 58.8921811,125.391571 61.5977685,126.273801 C64.0422905,127.065911 62.7701897,131.41303 60.3968675,130.758472 M62.2005924,114.031669 C62.3501117,112.74864 63.494053,111.923328 64.6071412,112.212662 C65.6086832,112.475908 66.0382545,113.265646 66.1094542,114.15262 C66.4108661,118.072853 61.8113675,117.399322 62.2005924,114.031669 M64.6071412,81.9108941 C65.2431915,86.8793689 65.9006018,94.1387968 66.1094542,99.4867256 C66.3064399,104.547692 65.4734038,109.286123 61.6974481,109.667949 C61.2370235,109.71538 59.5448448,109.17703 58.8945545,108.818921 C57.285442,107.93669 55.7926223,106.404645 54.3828688,105.183278 C50.694726,101.979264 47.0231964,98.5120033 43.5628926,95.2439564 C42.7678296,94.4945349 42.0320997,93.5032115 41.9585267,92.5782926 C41.7757809,90.2422793 43.764625,88.0177307 44.965526,86.7607896 C48.7818283,82.7599222 52.3323184,80.39545 57.491921,78.2752512 C59.0322072,77.6420374 60.4253473,76.9044739 62.0985395,77.3076437 C64.1633299,77.8033053 64.296236,79.5084764 64.6071412,81.9108941 M36.8487639,102.152389 C37.9476121,102.413264 38.6311289,103.217232 39.5543513,103.850446 C42.1246593,105.612535 44.4267819,107.350908 46.769251,109.181773 C49.2208929,111.100387 53.9960173,114.373177 55.2847313,117.543989 C57.2806953,122.453174 54.1882564,125.047691 51.0792042,126.273801 C45.8222954,128.341825 40.966478,129.764777 35.7475423,131.242276 C34.5774944,131.57667 33.4572863,132.05573 32.4391311,131.728451 C28.9717072,130.609062 29.8545831,119.718735 30.4336738,115.729725 C30.7920454,113.286991 31.4898022,110.189698 32.1377191,107.969892 C32.8331026,105.593562 33.8417645,101.440913 36.8487639,102.152389 M30.5333533,145.90817 C33.8797377,155.190562 38.6240089,162.371727 44.766167,167.726771 C50.9605381,173.124503 58.7260486,177.198889 68.9123478,177.787043 C80.9878115,178.481918 90.5523003,173.062842 97.3732285,166.512518 C98.3961304,165.530681 99.4736187,164.653194 100.377854,163.602581 C102.174459,161.525071 103.902238,159.07285 105.390311,156.575569 C109.769091,149.218906 113.229395,140.002918 113.704059,127.606633 C114.024458,119.315565 112.638437,111.527273 110.500074,105.42518 C108.257284,99.0266377 105.665617,94.2289171 101.98222,89.5474043 C98.5219165,85.150482 94.5442283,81.3345984 89.5578782,78.3962021 C84.6474745,75.5052375 78.8375815,73.5771373 72.0214,73.1858254 C58.3154638,72.3937153 47.4076747,79.4539299 40.5558933,87.6074461 C38.669102,89.8557106 36.9270835,92.0233412 35.4461304,94.5182508 C31.0436176,101.927089 27.6023003,111.596049 27.1276358,123.729088 C26.797744,132.186168 28.3475235,139.834536 30.5333533,145.90817" id="Fill-21" fill="#0B3551"></path>
                                <path d="M180.555556,158.890072 C180.555556,170.856005 190.257472,180.555556 202.223405,180.555556 C214.189338,180.555556 223.888889,170.856005 223.888889,158.890072 C223.888889,146.921773 214.189338,137.222222 202.223405,137.222222 C190.257472,137.222222 180.555556,146.921773 180.555556,158.890072" id="Fill-23" fill="#0B3551"></path>
                                <path d="M227.210813,157.083333 C243.798093,157.083333 257.291667,143.720008 257.291667,127.290495 C257.291667,110.865668 243.798093,97.5 227.210813,97.5 L165.497521,97.5 C148.910241,97.5 135.416667,110.865668 135.416667,127.290495 C135.416667,143.720008 148.910241,157.083333 165.497521,157.083333 L227.210813,157.083333 Z" id="Fill-25" fill="#40D2FF"></path>
                                <path d="M166.941019,95.6944444 C149.557462,95.6944444 135.416667,109.869761 135.416667,127.290485 C135.416667,144.713573 149.557462,158.888889 166.941019,158.888889 L228.475648,158.888889 C245.859204,158.888889 260,144.713573 260,127.290485 C260,109.869761 245.859204,95.6944444 228.475648,95.6944444 L166.941019,95.6944444 Z M166.941019,98.7649357 L228.475648,98.7649357 C244.194194,98.7649357 256.938834,111.536194 256.938834,127.290485 C256.938834,143.04714 244.194194,155.820761 228.475648,155.820761 L166.941019,155.820761 C151.220114,155.820761 138.477833,143.04714 138.477833,127.290485 C138.477833,111.536194 151.220114,98.7649357 166.941019,98.7649357 L166.941019,98.7649357 Z" id="Fill-27" fill="#40D2FF"></path>
                                <path d="M169.824412,150.763889 L226.495033,150.763889 C239.514055,150.763889 250.069444,140.253728 250.069444,127.290492 C250.069444,114.327255 239.514055,103.819444 226.495033,103.819444 L169.824412,103.819444 C156.80303,103.819444 146.25,114.327255 146.25,127.290492 C146.25,140.253728 156.80303,150.763889 169.824412,150.763889" id="Fill-29" fill="#FFFFFF"></path>
                                <path d="M214.919202,137.222222 C217.273802,137.222222 219.271929,135.417221 219.466582,133.031745 C219.764425,129.358721 222.897638,126.479294 226.59605,126.479294 C230.294461,126.479294 233.427674,129.358721 233.727862,133.031745 C233.929551,135.541294 236.138748,137.418773 238.650478,137.205743 C241.164553,137.002076 243.036038,134.801539 242.832004,132.29199 C242.1472,123.918244 235.015388,117.361111 226.59605,117.361111 C218.176712,117.361111 211.044899,123.918244 210.36244,132.294331 C210.158406,134.80388 212.029891,137.002076 214.543966,137.205743 C214.670608,137.217447 214.794905,137.222222 214.919202,137.222222" id="Fill-31" fill="#0B3551"></path>
                                <path d="M176.102088,137.222222 C178.45669,137.222222 180.452472,135.417221 180.647126,133.031745 C180.947314,129.358721 184.080529,126.479294 187.778942,126.479294 C191.477355,126.479294 194.608225,129.358721 194.908413,133.031745 C195.112447,135.541294 197.328681,137.418773 199.831031,137.205743 C202.345108,137.002076 204.216594,134.801539 204.01256,132.29199 C203.330101,123.918244 196.198284,117.361111 187.778942,117.361111 C179.3596,117.361111 172.227783,123.918244 171.542979,132.29199 C171.338945,134.801539 173.212776,137.002076 175.724507,137.205743 C175.853495,137.217447 175.975446,137.222222 176.102088,137.222222" id="Fill-33" fill="#0B3551"></path>
                                <path d="M165.659864,107.430556 C165.659864,107.430556 171.071526,116.387555 170.595319,121.31379 C170.114228,126.240025 165.659864,126.388889 165.659864,126.388889 C165.659864,126.388889 161.203058,126.240025 160.724409,121.31379 C160.24576,116.387555 165.659864,107.430556 165.659864,107.430556" id="Fill-35" fill="#40D2FF"></path>
                            </g>
                        </g>
                        <path d="M114.756695,65.4339138 C98.1672304,59.7542797 88.2219375,71.0375235 88.2219375,71.0375235 C88.2219375,71.0375235 83.9196094,60.1605486 71.1526122,63.713039 C59.8604708,66.8555252 61.1940083,76.1896013 61.1940083,76.1896013 C61.1940083,76.1896013 58.9810592,72.8201407 54.3821183,73.9137048 C49.7831774,75.0074886 49.4550619,78.9827271 49.4550619,78.9827271 C49.4550619,78.9827271 44.1517487,76.3904286 37.9308658,79.1721288 C31.7097611,81.9540487 32.0021588,87 32.0021588,87 L130.951711,87 C130.951711,87 132.726508,71.5861732 114.756695,65.4339138" id="Fill-3" fill="#D8F0FA" opacity="0.332124256"></path>
                        <path d="M503.553006,3.6508707 C478.585024,-4.86858038 463.616855,12.0562853 463.616855,12.0562853 C463.616855,12.0562853 457.141634,-4.25917712 437.926659,1.06955843 C420.931416,5.78328776 422.938457,19.784402 422.938457,19.784402 C422.938457,19.784402 419.607857,14.730211 412.686218,16.3705572 C405.76458,18.0112329 405.27075,23.9740906 405.27075,23.9740906 C405.27075,23.9740906 397.288996,20.085643 387.926253,24.2581932 C378.563176,28.431073 379.003249,36 379.003249,36 L527.927323,36 C527.927323,36 530.598481,12.8792598 503.553006,3.6508707" id="Fill-3" fill="#D8F0FA" opacity="0.332124256" transform="translate(453.500000, 18.000000) scale(-1, 1) translate(-453.500000, -18.000000) "></path>
                    </g>
                </g>
            </g>
        </g>
    </g>
</svg>