<svg width="24" height="21" viewBox="0 0 24 21" fill="none" xmlns="http://www.w3.org/2000/svg">
<path d="M1.26425 13.875C0.946885 13.875 0.642521 14.0001 0.418111 14.2228C0.193702 14.4455 0.06763 14.7476 0.06763 15.0625C0.06763 15.3774 0.193702 15.6795 0.418111 15.9022C0.642521 16.1249 0.946885 16.25 1.26425 16.25C2.21634 16.25 3.12943 16.6253 3.80266 17.2934C4.47589 17.9615 4.8541 18.8677 4.8541 19.8125C4.8541 20.1274 4.98018 20.4295 5.20459 20.6522C5.429 20.8749 5.73336 21 6.05072 21C6.36809 21 6.67245 20.8749 6.89686 20.6522C7.12127 20.4295 7.24734 20.1274 7.24734 19.8125C7.24734 18.2378 6.61698 16.7276 5.49493 15.6141C4.37289 14.5006 2.85106 13.875 1.26425 13.875ZM0.414649 18.9694C0.248281 19.1358 0.135288 19.3474 0.0899105 19.5775C0.044533 19.8076 0.0688017 20.0459 0.159658 20.2623C0.250515 20.4787 0.403893 20.6636 0.600463 20.7937C0.797033 20.9237 1.028 20.9931 1.26425 20.9931C1.5005 20.9931 1.73146 20.9237 1.92803 20.7937C2.1246 20.6636 2.27798 20.4787 2.36884 20.2623C2.45969 20.0459 2.48396 19.8076 2.43859 19.5775C2.39321 19.3474 2.28022 19.1358 2.11385 18.9694C2.00261 18.8581 1.87026 18.7697 1.72444 18.7094C1.57862 18.6492 1.42222 18.6181 1.26425 18.6181C1.10628 18.6181 0.949876 18.6492 0.804057 18.7094C0.658238 18.7697 0.52589 18.8581 0.414649 18.9694ZM20.4101 0H3.65748C2.7054 0 1.06481 0 0.418154 1.36524C-0.228504 2.73048 0.06763 5.5625 0.06763 5.5625C0.06763 5.5625 0.193702 6.17949 0.418111 6.40219C0.642521 6.62489 0.946885 6.75 1.26425 6.75C1.58161 6.75 1.88598 6.62489 2.11038 6.40219C2.33479 6.17949 2.46087 5.87744 2.46087 5.5625C2.46087 5.24756 2.56069 4 2.56063 3.5C2.56059 3.04487 3.05917 2.375 3.65748 2.375H20.4101C20.7275 2.375 21.0319 2.50011 21.2563 2.72281C21.4807 2.94551 21.6068 3.24756 21.6068 3.5625V17.4375C21.6068 17.7524 21.4807 18.0545 21.2563 18.2772C21.0319 18.4999 20.7275 18.625 20.4101 18.625H15.6237C15.3063 18.625 15.0019 18.7501 14.7775 18.9728C14.5531 19.1955 14.427 19.4976 14.427 19.8125C14.427 20.1274 14.5531 20.4295 14.7775 20.6522C15.0019 20.8749 15.3063 21 15.6237 21H20.4101C21.3622 21 22.2753 20.6247 22.9486 19.9566C23.6218 19.2885 24 18.3823 24 17.4375V3.5625C24 2.61767 23.6218 1.71153 22.9486 1.04343C22.2753 0.375334 21.3622 0 20.4101 0ZM1.26425 9.125C0.946885 9.125 0.642521 9.25011 0.418111 9.47281C0.193702 9.69551 0.06763 9.99756 0.06763 10.3125C0.06763 10.6274 0.193702 10.9295 0.418111 11.1522C0.642521 11.3749 0.946885 11.5 1.26425 11.5C3.48579 11.5 5.61634 12.3758 7.18721 13.9347C8.75807 15.4936 9.64058 17.6079 9.64058 19.8125C9.64058 20.1274 9.76665 20.4295 9.99106 20.6522C10.2155 20.8749 10.5198 21 10.8372 21C11.1546 21 11.4589 20.8749 11.6833 20.6522C11.9077 20.4295 12.0338 20.1274 12.0338 19.8125C12.0338 16.978 10.8992 14.2596 8.87948 12.2553C6.8598 10.251 4.12051 9.125 1.26425 9.125Z" fill="white"/>
</svg>
